<svg width="51" height="51" viewBox="0 0 51 51" fill="none" xmlns="http://www.w3.org/2000/svg">
<g clip-path="url(#clip0_674_414)">
<path d="M51 25.5C51 32.263 48.3134 38.749 43.5312 43.5312C38.749 48.3134 32.263 51 25.5 51C18.737 51 12.251 48.3134 7.46878 43.5312C2.6866 38.749 0 32.263 0 25.5C0 18.737 2.6866 12.251 7.46878 7.46878C12.251 2.6866 18.737 0 25.5 0C32.263 0 38.749 2.6866 43.5312 7.46878C48.3134 12.251 51 18.737 51 25.5ZM26.4148 18.8254C23.9328 19.8581 18.9752 21.9937 11.5419 25.2322C10.3371 25.7104 9.70488 26.18 9.64538 26.6411C9.54975 27.4157 10.5219 27.7217 11.8448 28.1393L12.4026 28.3146C13.7031 28.7385 15.4562 29.2326 16.3646 29.2517C17.1934 29.2729 18.1156 28.9329 19.1314 28.2317C26.078 23.5439 29.6629 21.1746 29.886 21.1236C30.0454 21.0853 30.2685 21.0407 30.4151 21.1746C30.5617 21.3084 30.549 21.5571 30.5331 21.624C30.4374 22.0352 26.622 25.5797 24.6489 27.4157C24.0337 27.9894 23.5971 28.3943 23.5078 28.4867C23.3113 28.6876 23.1116 28.8853 22.9086 29.0796C21.6973 30.2462 20.7921 31.1196 22.9564 32.5476C23.9987 33.2361 24.8338 33.8002 25.6658 34.3676C26.571 34.986 27.4762 35.6012 28.6492 36.3726C28.9467 36.5681 29.2336 36.7667 29.5099 36.9686C30.5649 37.7209 31.518 38.3966 32.6878 38.2883C33.3699 38.2245 34.0744 37.587 34.4314 35.6745C35.2761 31.1578 36.9368 21.3754 37.3193 17.3432C37.3433 17.008 37.3294 16.6712 37.2778 16.3391C37.2469 16.0714 37.1174 15.8248 36.9144 15.6474C36.624 15.448 36.2785 15.3444 35.9263 15.351C34.9701 15.3669 33.4942 15.8801 26.4148 18.8254Z" fill="#44944A"/>
</g>
<defs>
<clipPath id="clip0_674_414">
<rect width="51" height="51" fill="white"/>
</clipPath>
</defs>
</svg>
